<?xml version="1.0" encoding="utf-8"?>
<!-- Generator: Adobe Illustrator 19.0.0, SVG Export Plug-In . SVG Version: 6.00 Build 0)  -->
<svg version="1.1" id="Layer_1" xmlns="http://www.w3.org/2000/svg" xmlns:xlink="http://www.w3.org/1999/xlink" x="0px" y="0px"
	 viewBox="0 0 612 500" style="enable-background:new 0 0 612 500;" xml:space="preserve">
<style type="text/css">
	.st0{stroke:#FFFFFF;stroke-width:8;stroke-miterlimit:10;}
	.st1{fill:#BFC22A;}
	.st2{fill:#FFFFFF;}
</style>
<g id="XMLID_1_">
	<circle id="XMLID_12_" class="st0" cx="305.4" cy="249.8" r="239.9"/>
	<path id="XMLID_11_" class="st1" d="M325.9,162.9c-18.9,0-37.1,8.5-49.3,22.9V74.5c0-0.8-0.6-1.4-1.4-1.4h-52.8
		c-0.8,0-1.4,0.6-1.4,1.4v265c0,0.8,0.6,1.4,1.4,1.4h52.8c0.8,0,1.4-0.6,1.4-1.4v-99.8c0-15.5,12.8-28.1,28.6-28.1
		c15.3,0,27.8,12.6,27.8,28.1v99.8c0,0.8,0.6,1.4,1.4,1.4h52.8c0.8,0,1.4-0.6,1.4-1.4V226.2C388.6,191.3,360.5,162.9,325.9,162.9z"
		/>
	<path id="XMLID_10_" d="M387.2,120.5c-31.2,0-56.5,25.4-56.5,56.5s25.3,56.5,56.5,56.5s56.5-25.4,56.5-56.5
		S418.4,120.5,387.2,120.5z"/>
	<path id="XMLID_9_" class="st2" d="M414.7,169.5h-20.3v-20.3c0-1.5-1.2-2.8-2.8-2.8h-7.9c-1.5,0-2.8,1.2-2.8,2.8v20.3h-20.3
		c-1.5,0-2.8,1.2-2.8,2.8v7.9c0,1.5,1.2,2.8,2.8,2.8h20.3v20.3c0,1.5,1.2,2.8,2.8,2.8h7.9c1.5,0,2.8-1.2,2.8-2.8v-20.3h20.3
		c1.5,0,2.8-1.2,2.8-2.8v-7.9C417.4,170.7,416.2,169.5,414.7,169.5z"/>
	<path id="XMLID_8_" class="st2" d="M224.4,386.5c-0.4-0.1-0.9-0.2-1.5-0.3c-4.5-0.9-8.5-2-8.5-5.3c0-2.6,3.1-3.8,6.1-3.8
		c3.1,0,5.8,1.3,7.8,3.8c0.3,0.4,0.8,0.4,1.2,0.1l6.1-4.6c0.4-0.3,0.4-0.8,0.2-1.1c-2.8-4.6-8.2-7.3-14.9-7.3
		c-8,0-16.6,4.3-16.6,13.7c0,8.6,6.6,11,13.4,12.7l1.1,0.2c4.3,0.9,8.2,2,8.2,5.3c0,2.9-3.8,4.4-7.5,4.4c-4.2,0-7-2.2-9.5-4.6
		c-0.3-0.3-0.8-0.3-1.2-0.1l-6,4.9c-0.4,0.3-0.4,0.8-0.1,1.2c4,5.4,9,7.7,16.7,7.7c8.2,0,17.7-3.6,17.7-13.9
		C237.2,390.7,231.1,388.1,224.4,386.5z"/>
	<path class="st2" d="M268.4,368c-5.3,0-10.5,2.2-13.8,5.6v-3.7c0-0.5-0.4-0.9-0.9-0.9h-7.9c-0.5,0-0.9,0.4-0.9,0.9v66.2
		c0,0.5,0.4,0.9,0.9,0.9h7.9c0.5,0,0.9-0.4,0.9-0.9v-28.4c3.2,3.5,8.4,5.6,13.8,5.6c12.9,0,22-9.3,22-22.7S281.3,368,268.4,368z
		 M280.2,390.6c0,8.1-5.1,13.6-12.8,13.6s-12.8-5.5-12.8-13.6c0-8.1,5.1-13.6,12.8-13.6S280.2,382.5,280.2,390.6z"/>
	<path class="st2" d="M319.4,368c-12.9,0-22.9,10-22.9,22.7s10.1,22.7,22.9,22.7c12.9,0,22.9-10,22.9-22.7S332.3,368,319.4,368z
		 M332.2,390.6c0,8.1-5.1,13.6-12.8,13.6c-7.7,0-12.8-5.5-12.8-13.6c0-8.1,5.1-13.6,12.8-13.6C327.1,377,332.2,382.5,332.2,390.6z"
		/>
	<path id="XMLID_3_" class="st2" d="M371.9,368c-4.5,0-9.1,2.2-11.7,5.6v-3.6c0-0.5-0.4-0.9-0.9-0.9h-7.9c-0.5,0-0.9,0.4-0.9,0.9
		v41.5c0,0.5,0.4,0.9,0.9,0.9h7.9c0.5,0,0.9-0.4,0.9-0.9v-20.8c0-8.4,3.6-12.4,11-12.4c1,0,2.2,0.2,3.6,0.6c0.3,0.1,0.5,0,0.7-0.1
		c0.2-0.2,0.3-0.4,0.4-0.7l0.4-8.5c0-0.4-0.2-0.7-0.6-0.9C374.6,368.2,373.2,368,371.9,368z"/>
	<path id="XMLID_2_" class="st2" d="M410.6,403.1c-0.3-0.2-0.6-0.2-0.9,0c-1.5,0.9-3.6,1.1-5.1,1.1c-4.7,0-5.1-3.3-5.1-8.7v-18h10.4
		c0.5,0,0.9-0.4,0.9-0.9v-6.8c0-0.5-0.4-0.9-0.9-0.9h-10.4v-10.8c0-0.5-0.4-0.9-0.9-0.9h-7.9c-0.5,0-0.9,0.4-0.9,0.9V369h-8.2
		c-0.5,0-0.9,0.4-0.9,0.9v6.8c0,0.5,0.4,0.9,0.9,0.9h8.2v20.8c0,6.3,0,15,13.2,15c1.3,0,5.4-0.3,7.5-1.5c0.3-0.2,0.4-0.4,0.4-0.8
		v-7.2C411,403.5,410.9,403.2,410.6,403.1z"/>
</g>
</svg>
